<?xml version="1.0" standalone="no"?>
<!DOCTYPE svg PUBLIC "-//W3C//DTD SVG 1.1//EN"
  "http://www.w3.org/Graphics/SVG/1.1/DTD/svg11.dtd">
<svg version="1.1" xmlns="http://www.w3.org/2000/svg" xmlns:xlink="http://www.w3.org/1999/xlink" width="1280" height="720" viewBox="-1040.8888888888887 -32 1889.7777777777776 1063" id="ccdiagram"><filter id="grayscale"><feColorMatrix type="matrix" values="0.3333 0.3333 0.3333 0 0 0.3333 0.3333 0.3333 0 0 0.3333 0.3333 0.3333 0 0 0 0 0 1 0"></feColorMatrix></filter><defs><style type="text/css">@import url('https://fonts.googleapis.com/css?family=Open+Sans:400,700|Inconsolata:400');</style></defs><g>0<g pointer-events="auto"><g opacity="1"><g><g><polygon points="-288 204, -176 268, -175 305, -687 619, -752 620, -864 555, -865 519, -353 204" fill="#ffffff" stroke-width="2" stroke="#818181"></polygon><polygon points="-320 222, -208 287, -720 601, -832 537" fill="#e6e7e8" stroke-width="0" stroke="#818181"></polygon></g></g></g><g opacity="1"><g><g><polygon points="48 398, 384 592, 384 629, 208 731, 144 731, -192 537, -192 500, -16 398" fill="#ffffff" stroke-width="2" stroke="#818181"></polygon><polygon points="16 416, 352 611, 176 712, -160 518" fill="#e6e7e8" stroke-width="0" stroke="#818181"></polygon></g></g></g></g>0<g pointer-events="auto"></g><g></g><g pointer-events="auto"></g><g></g><g pointer-events="auto"></g><g pointer-events="none"></g><g pointer-events="auto"></g><g pointer-events="auto"><g opacity="1"><g id="efaf6cdc-3f6b-4a03-9f3e-58be4f9bb2ab" transform="translate(0 0)"><svg x="-643" y="370" height="115.695" width="100.625" viewBox="0 0 26.624 30.611"><path d="M13.312.306v15l12.99-7.5z" fill="#4286c5" fill-rule="evenodd"></path><path d="M.322 7.806l12.99 7.5v-15z" fill="#26527b" fill-rule="evenodd"></path><path d="M13.312.306v15" fill="none" stroke="#318bce" stroke-width=".265"></path><path d="M13.312 15.306l12.99-7.5-6.495 18.75-6.495 3.75z" fill="#26527b" fill-rule="evenodd"></path><path d="M.322 7.806l12.99 7.5v15l-6.495-3.75z" fill="#326ca2" fill-rule="evenodd"></path><path d="M.322 7.806l12.99 7.5 12.99-7.5-12.99 7.5v15" fill="none" stroke="#5aa2d8" stroke-width=".265"></path><path d="M13.312.306l-12.99 7.5 6.495 18.75 6.495 3.75 6.495-3.75 6.495-18.75z" fill="none" stroke="#000000" stroke-width=".529"></path></svg></g></g><g opacity="1"><g id="cf8c1455-4121-4fec-958b-eb14c62c4271" transform="translate(0 0)"><g><polygon points="-304 657, 16 842, -144 934, -464 749" fill="#ececed"></polygon><polygon points="-464 786, -144 971, -144 934, -464 749" fill="#d2d2d4" stroke="#83838a"></polygon><polygon points="-144 971, 16 879, 16 842, -144 934" fill="#b8b8bb" stroke="#83838a"></polygon><polygon points="-304 657, -464 749, -464 786, -144 971, 16 879, 16 842" fill="none" stroke="#000000" stroke-width="2"></polygon></g></g></g><g opacity="1"><g id="2685515d-0fdf-4c31-b26d-7cf5ad8c321d" transform="translate(0 0)"><svg x="-408" y="820" height="95.068" width="63" viewBox="0 0 16.669 25.153"><path d="M16.668 22.903q0 1.64-.864 2.091-.865.451-2.297-.376L3.161 18.645q-1.433-.827-2.297-2.276Q.001 14.921 0 13.28q0-.723.042-1.39.042-.666.166-1.394.124-.727.313-1.302.19-.575.51-1.039.319-.464.733-.683.414-.22 1.012-.147.598.073 1.32.49.107.06.497.58.391.52.882 1.165.491.646 1.279 1.394.788.75 1.58 1.207.793.458 1.58.618.788.161 1.28.083.49-.079.881-.147.39-.069.497-.007.722.416 1.32 1.035.598.619 1.013 1.315.414.697.734 1.531t.509 1.627q.19.793.313 1.664.124.872.166 1.586.042.713.042 1.438zM12.88 8.51q0 2.173-1.332 2.942-1.332.769-3.214-.318-1.882-1.086-3.214-3.393Q3.79 5.434 3.79 3.26q0-2.173 1.331-2.942 1.332-.77 3.214.317t3.214 3.394q1.332 2.306 1.332 4.48z" fill="#000000"></path></svg></g></g></g><g pointer-events="auto"><g opacity="1"><g id="aaa75ee6-f42e-4517-82f0-f9b147718231" transform="translate(0 0)"><svg x="-272" y="805" overflow="visible"><g transform="scale(0.7075000000000001) matrix(0.707 0.409 -0.707 0.409 0 0)"><svg x="-96" y="-96" overflow="visible"><image xlink:href="https://images.cloudcraft.co/0ed74637-a14a-4421-a0e3-2430156e5b0a/jupyter.png" width="192" height="192"></image></svg></g></svg></g></g><g opacity="1"><g id="d38ac262-69f1-4dc9-9d58-24abcb87e1cd" transform="translate(0 0)"><svg x="-144" y="860" overflow="visible"><g transform="scale(0.2830000000000002) matrix(0.707 0.409 -0.707 0.409 0 0)"><svg x="-256" y="-256" width="512" height="512"><svg height="512" width="512"><rect width="512" height="512" rx="15%" fill="#066DA5"></rect><path fill="#fff" d="M296 245h42v-38h-42zm-50 0h42v-38h-42zm-49 0h42v-38h-42zm-49 0h41v-38h-41zm-50 0h42v-38H98zm50-46h41v-38h-41zm49 0h42v-38h-42zm49 0h42v-38h-42zm0-46h42v-38h-42zm226 75s-18-17-55-11c-4-29-35-46-35-46s-29 35-8 74c-6 3-16 7-31 7H68c-5 19-5 145 133 145 99 0 173-46 208-130 52 4 63-39 63-39z"></path></svg></svg></g></svg></g></g></g><g pointer-events="auto"><g opacity="1"><g id="697e972b-f813-4523-aa1f-243e357c800d" transform="translate(0 0)"><svg x="-688" y="509" overflow="visible"><g transform=" "><svg width="100" height="100" x="-50" y="-50" style="fill: rgb(255, 255, 255);"><svg data-name="Layer 1" xmlns="http://www.w3.org/2000/svg" width="100" height="100" viewBox="0 0 100 100"><g><circle cx="50" cy="51.25" r="30.43" fill="#9d5025"></circle><path fill="#9d5025" d="M19.57 48.75h60.86v2.5H19.57z"></path><circle cx="50" cy="48.75" r="30.43" fill="#f58536"></circle><path fill="#fff" d="M51.97 45.45h-3.93l-2.11-18.13h8.15l-2.11 18.13z"></path><path fill="#fff" d="M67.6 58.8l1.57-1.3-5.69-8.5-12.46-4.35L50 51.53l11.23 1.05 6.37 6.22zM32.4 58.8l-1.56-1.3 5.68-8.5 12.46-4.35L50 51.53l-11.23 1.05-6.37 6.22z"></path><circle cx="50" cy="27.32" r="5.65" fill="#fff"></circle><path d="M50 33.47a6.15 6.15 0 1 1 6.15-6.15A6.16 6.16 0 0 1 50 33.47zm0-11.3a5.15 5.15 0 1 0 5.15 5.15A5.15 5.15 0 0 0 50 22.17z" fill="#f58536"></path><circle cx="50" cy="27.32" r="1.85" fill="#f58536"></circle><circle cx="50" cy="48.02" r="4.07" fill="#fff"></circle><path d="M50 52.59A4.57 4.57 0 1 1 54.58 48 4.58 4.58 0 0 1 50 52.59zm0-8.15A3.57 3.57 0 1 0 53.58 48 3.58 3.58 0 0 0 50 44.45z" fill="#f58536"></path><circle cx="50" cy="48.02" r="1.25" fill="#f58536"></circle><path fill="#fff" d="M36.87 57.4h26.26v14.51H36.87z"></path><path fill="#fbbf93" d="M38.19 58.57h2v12.17h-2zM41.79 58.57h2v12.17h-2zM45.4 58.57h2v12.17h-2zM49 58.57h2v12.17h-2zM52.6 58.57h2v12.17h-2zM56.21 58.57h2v12.17h-2zM59.81 58.57h2v12.17h-2z"></path></g></svg></svg></g></svg></g></g><g opacity="1"><g id="f299fc90-ba3e-462c-9470-86e57cfd76cf" transform="translate(0 0)"><svg x="-480" y="370" overflow="visible"><g transform=" "><svg width="100" height="100" x="-50" y="-50" style="fill: rgb(255, 255, 255);"><svg data-name="Layer 1" xmlns="http://www.w3.org/2000/svg" width="100" height="100" viewBox="0 0 100 100"><g><path fill="#4b612c" d="M25.49 78.71l-9.47-4.75V25.94l9.47-4.72 13.05 29.53-13.05 27.96z"></path><path fill="#759c3e" d="M56.77 29.63l-31.28-8.41v57.49l31.28-8.73V29.63z"></path><path fill="#4b612c" d="M71.22 65.69l7.28 2.45 4.59-15.83-4.59-15.84-7.28 1.05v28.17z"></path><path fill="#3c4929" d="M78.5 36.88l-7.28.92-4.28-.9 7.47-15.62 4.09 15.6z"></path><path fill="#4b612c" d="M66.94 36.9l7.47-1V21.24l-7.47 2.01V36.9z"></path><path fill="#3c4929" d="M43.13 31.62L50 24.43l18.03 9.88-6.67 1.09-18.23-3.78z"></path><path fill="#b7ca9d" d="M78.5 63.12l-7.28-.82-4.28.8 7.47 15.72 4.09-15.7z"></path><path fill="#4b612c" d="M66.94 63.1l7.47 1v14.72l-7.47-2.07V63.1z"></path><path fill="#759c3e" d="M68.03 34.31L50 29.92V9l18.03 9.07v16.24zM83.98 26.04l-9.57-4.8V35.9l9.57 2.29V26.04z"></path><path fill="#b7ca9d" d="M43.13 68.38L50 82.09l18.03-16.4-6.67-1.09-18.23 3.78z"></path><path fill="#759c3e" d="M68.03 65.69L50 70.08V91l18.03-8.99V65.69zM83.98 74.06l-9.57 4.76V64.1l9.57-2.29v12.25z"></path><path fill="#4b612c" d="M31.87 81.91L50 91l8.34-40.85L50 9l-18.13 9.04v63.87z"></path><path fill="#759c3e" d="M60.16 85.92L50 91V9.3l10.16 5.08v71.54zM78.5 76.75l5.48-2.69V26.04l-5.48-1.26v51.97z"></path></g></svg></svg></g></svg></g></g><g opacity="1"><g id="04438adb-2b47-4fe7-a294-9d18afdc62ec" transform="translate(0 0)"><svg x="64" y="537" overflow="visible"><g transform="scale(1.953125) "><svg width="100" height="100" x="-50" y="-50" style="fill: rgb(255, 255, 255);"><svg data-name="Layer 1" xmlns="http://www.w3.org/2000/svg" width="100" height="100" viewBox="0 0 100 100"><g><path fill="#9d5025" d="M19.64 22.51L16 24.32v51.36l3.64 1.81 14.34-26.42-14.34-28.56zM30.72 31.78l5.36-7.59L60.1 34.87l-5.6.89-23.78-3.98zM26.56 68.77l5.9 8.11L60.1 64.95l-5.34-.83-28.2 4.65z"></path><path fill="#f58536" d="M28.12 75.5l-8.48 1.99V22.51l8.48 1.93V75.5z"></path><path fill="#9d5025" d="M23.66 20.5l4.46-2.23 8.4 35.29-8.4 28.17-4.46-2.23v-59zM54.46 64.08l5.64.87 5.16-14.37-5.16-15.71-5.64.89v28.32z"></path><path fill="#f58536" d="M36.8 79.28l-8.68 2.45V18.27l8.68 2.46v58.55z"></path><path fill="#f58536" d="M66.01 63.84l-37.89 7.04v10.85l37.89-10.7v-7.19zM66.08 36l-37.96-7.21V18.27l37.96 10.77V36z"></path><path fill="#f58536" d="M60.1 27.34l6.09 1.68v42.01L60.1 72.7V27.34z"></path><path fill="#6b3a19" d="M84 44.45l-16.3.77-5.76-.39 16.48-13.28L84 44.45z"></path><path fill="#9d5025" d="M61.94 44.83l16.48-.93V31.55l-16.48 2.67v10.61z"></path><path fill="#6b3a19" d="M46.43 43.79l16.7-16.83 8.49 16.26-17.31 1.1-7.88-.53z"></path><path fill="#9d5025" d="M46.43 43.79l16.7-1.42V26.96l-16.7 3.91v12.92zM61.94 55.39l22.06.38-5.58 12.9L61.94 66V55.39z"></path><path fill="#9d5025" d="M46.43 56.43l25.19.58-8.49 16.25-16.7-3.9V56.43z"></path><path fill="#fbbf93" d="M46.43 56.43l16.7 1.43 8.49-.85-17.31-1.11-7.88.53zM84 55.77l-16.3-.76-5.76.38 16.48.94 5.58-.56z"></path><path fill="#f58536" d="M78.42 43.9l5.58.55V33.22l-5.58-1.67V43.9zM71.62 43.22l-8.49-.85V26.96l8.49 2.55v13.71zM78.42 56.33l5.58-.56V67l-5.58 1.67V56.33zM71.62 57.01l-8.49.85v15.4l8.49-2.54V57.01z"></path></g></svg></svg></g></svg></g></g><g opacity="1"><g id="7ea1a216-0e4c-4677-a8c0-2c936d4b51e0" transform="translate(0 0)"><svg x="-368" y="749" overflow="visible"><g transform="scale(2.1836601342771385) matrix(0.707 0.409 -0.707 0.409 0 0)"><circle cx="0" cy="0" fill="#000000" r="23"></circle><svg width="27" height="32" x="-13.5" y="-16" style="fill: rgb(255, 255, 255);"><svg xmlns="http://www.w3.org/2000/svg" width="27" height="32" viewBox="0 0 27 32"><path d="M13.714 2.286c7.571 0 13.714 6.143 13.714 13.714 0 6.054-3.929 11.196-9.375 13.018-.696.125-.946-.304-.946-.661 0-.446.018-1.929.018-3.768 0-1.286-.429-2.107-.929-2.536 3.054-.339 6.268-1.5 6.268-6.768 0-1.5-.536-2.714-1.411-3.679.143-.357.607-1.75-.143-3.643-1.143-.357-3.768 1.411-3.768 1.411a12.895 12.895 0 0 0-6.858 0S7.659 7.606 6.516 7.963c-.75 1.893-.286 3.286-.143 3.643-.875.964-1.411 2.179-1.411 3.679 0 5.25 3.196 6.429 6.25 6.768-.393.357-.75.964-.875 1.839-.786.357-2.786.964-3.982-1.143-.75-1.304-2.107-1.411-2.107-1.411-1.339-.018-.089.839-.089.839.893.411 1.518 2 1.518 2 .804 2.446 4.625 1.625 4.625 1.625 0 1.143.018 2.214.018 2.554 0 .357-.25.786-.946.661-5.446-1.821-9.375-6.964-9.375-13.018 0-7.571 6.143-13.714 13.714-13.714zM5.196 21.982c.036-.071-.018-.161-.125-.214-.107-.036-.196-.018-.232.036-.036.071.018.161.125.214.089.054.196.036.232-.036zm.554.607c.071-.054.054-.179-.036-.286-.089-.089-.214-.125-.286-.054-.071.054-.054.179.036.286.089.089.214.125.286.054zm.536.804c.089-.071.089-.214 0-.339-.071-.125-.214-.179-.304-.107-.089.054-.089.196 0 .321s.232.179.304.125zm.75.75c.071-.071.036-.232-.071-.339-.125-.125-.286-.143-.357-.054-.089.071-.054.232.071.339.125.125.286.143.357.054zm1.018.446c.036-.107-.071-.232-.232-.286-.143-.036-.304.018-.339.125s.071.232.232.268c.143.054.304 0 .339-.107zm1.125.09c0-.125-.143-.214-.304-.196-.161 0-.286.089-.286.196 0 .125.125.214.304.196.161 0 .286-.089.286-.196zm1.035-.179c-.018-.107-.161-.179-.321-.161-.161.036-.268.143-.25.268.018.107.161.179.321.143s.268-.143.25-.25z"></path></svg></svg></g></svg></g></g><g opacity="1"><g id="aac33a48-1c57-47f1-97b7-316c6520cb12" transform="translate(0 0)"><svg x="-368" y="305" overflow="visible"><g transform=" "><svg width="100" height="100" x="-50" y="-50" style="fill: rgb(255, 255, 255);"><svg data-name="Layer 1" xmlns="http://www.w3.org/2000/svg" width="100" height="100" viewBox="0 0 100 100"><g><path d="M89.17 51.89a7 7 0 0 1-.83-1.25 27.92 27.92 0 0 1-2.66-8.05 33.72 33.72 0 0 0-16-22.28c-6-3.69-12.09-6.09-19.31-5.16-9.55 1.23-17.64 4.79-23.2 13.06a65.9 65.9 0 0 0-7.36 15c-1.71 4.82-1.5 10.1-3.67 14.79a21.24 21.24 0 0 1-1.59 2.69c-1.5 2.29-3.41 4.41-4.48 6.88-2.64 6.07-1.19 9.58 4.69 12.6.6.31 1.22.59 1.85.84 6.86 2.78 22.88 6.22 32.82 2.39a34 34 0 0 0 6.66-2.85C64 76.3 71.9 72 79.76 67.72a33.12 33.12 0 0 0 9.52-7.22c2.55-2.95 2.48-5.7-.11-8.61z" fill="#4b612c"></path><path d="M61.25 18.56a35 35 0 0 1 11.5 6.76c2.53 2 9.26 8.93 10.81 17.63.16 1.29.26 2.6.51 3.87a5.85 5.85 0 0 0 .85 1.54l.81 2s1.48 2.35 2.29 3.49c1 1.42 1.4 2.88.27 4.36-2.51 3.27-5.82 5.54-9.88 7.65l.41-4.27-2.66-.76c-1 2.28-.39 4 2.13 5.24-2.38 1.26-4.46 2.35-6.53 3.45-6.36 3.4-12.67 6.89-19.08 10.2a30.53 30.53 0 0 1-15.14 3.49 58.78 58.78 0 0 1-17.8-3.43c-2.6-.93-4.67-5-3.87-7.57a2.58 2.58 0 0 1 2.93-1.81c4.46.47 8.91 1 13.36 1.54 4.95.6 9.89 1.67 14.84 1.71 5.61 0 11-1.71 16.24-3.89-1.59.11-3.18.2-4.77.32-4.42.33-8.87.47-13.26 1.05-5.45.72-10.61-.47-15.79-1.76a16.51 16.51 0 0 1-10.09-6.87c-.93-1.39-1.5-3-.78-4.5.58.52 1.22 1.49 1.72 1.43s1.36-.94 1.63-1.63c.68-1.77 1.14-3.63 1.66-5.46a98.49 98.49 0 0 1 2.81-9.83c2.32-5.8 4.77-11.59 8.64-16.58a34.67 34.67 0 0 1 4.77-5.21c2.32-2 5.33-2.68 8.27-3 3.49-.33 7-.16 10.56-.19.2 0 .4.17.6.27z" fill="#759c3e"></path><path d="M83.56 42.95a40.93 40.93 0 0 0-2.33-4.43 11.39 11.39 0 0 0-18.69.06c-2.92 4.09-4.28 8.76-5.06 13.64-.24 1.46-.41 2.94-.67 4.81a16.81 16.81 0 0 1-2.27-8.3c-.28-5.89.56-11.58 4.24-16.49 2.63-3.51 5.74-6.37 10.29-7a20.29 20.29 0 0 1 3.67.12c1.39 1.2 3.05 2.2 4.13 3.63a35.73 35.73 0 0 1 6.4 12 15.08 15.08 0 0 1 .29 1.96z" fill="#b7ca9d"></path><path d="M61.25 18.56c-5.07 1.41-8 5.16-10.42 9.48-3.46 6.23-6 12.77-5.86 20a30.1 30.1 0 0 0 2.57 12c.18.4.31.82.56 1.48a5 5 0 0 1-4.5-2.31 14.76 14.76 0 0 1-2.6-9.12c.21-9.33 2-18.26 8.1-25.77a39.76 39.76 0 0 1 4.37-4.47 7.84 7.84 0 0 1 5.76-2z" fill="#b7ca9d"></path><path d="M85.73 50.38c0 2.3-1.59 3.51-3.13 4.74-7.72 6.17-16.71 9.44-26.3 11.21-4.25.79-8.53 1.48-12.82 2-5.23.63-10.12-1.19-15.06-2.48-2-.53-4-1.18-6.07-1.77 0-.22 0-.43.07-.65a16.21 16.21 0 0 1 2.7 0c4 .69 7.93 1.72 11.94 2.11a52.89 52.89 0 0 0 11.08 0 80.61 80.61 0 0 0 20.16-4.72 86.55 86.55 0 0 0 10.92-5.32c2.78-1.56 5.35-3.53 5.7-7.15zM76.15 60.84c1.92-1.15 3.79-2.39 5.77-3.41a8.13 8.13 0 0 1 2.67-.36l.19.47-6 4.06z" fill="#b7ca9d"></path></g></svg></svg></g></svg></g></g><g opacity="1"><g id="e208f9f2-d414-488c-ab00-7192d8fc1a02" transform="translate(0 0)"><svg x="256" y="611" overflow="visible"><g transform="scale(2.729575167846423) matrix(0.707 0.409 -0.707 0.409 0 0)"><circle cx="0" cy="0" fill="#b1b1b1" r="23"></circle><svg width="27" height="32" x="-13.5" y="-16" style="fill: rgb(255, 255, 255);"><svg xmlns="http://www.w3.org/2000/svg" width="27" height="32" viewBox="0 0 27 32"><path d="M16 9.714v8c0 .321-.25.571-.571.571H9.715a.564.564 0 0 1-.571-.571v-1.143c0-.321.25-.571.571-.571h4V9.714c0-.321.25-.571.571-.571h1.143c.321 0 .571.25.571.571zM23.429 16c0-5.357-4.357-9.714-9.714-9.714S4.001 10.643 4.001 16s4.357 9.714 9.714 9.714 9.714-4.357 9.714-9.714zm4 0c0 7.571-6.143 13.714-13.714 13.714S.001 23.571.001 16 6.144 2.286 13.715 2.286 27.429 8.429 27.429 16z"></path></svg></svg></g></svg></g></g><g opacity="1"><g id="94693ba3-a05b-41bf-84ff-2017ece0ad4b" transform="translate(0 0)"><svg x="-480" y="648" overflow="visible"><g transform="scale(4.264961199760036) matrix(0.707 0.409 -0.707 0.409 0 0)"><circle cx="0" cy="0" fill="#ffffff" r="23.5"></circle><svg width="33" height="32" x="-16.5" y="-16" style="fill: rgb(0, 0, 0);"><svg xmlns="http://www.w3.org/2000/svg" width="33" height="32" viewBox="0 0 33 32"><path d="M32 14.286v3.429c0 .321-.25.571-.571.571H9.143v4c0 .232-.125.429-.339.518s-.446.054-.625-.089l-6.857-6.25a.582.582 0 0 1-.179-.411c0-.161.071-.321.179-.429l6.857-6.321a.578.578 0 0 1 .625-.107.573.573 0 0 1 .339.518v4h22.286c.321 0 .571.25.571.571z"></path></svg></svg></g></svg></g></g><g opacity="1"><g id="07807d13-4225-42cc-a786-c0e08451a7e9" transform="translate(0 0)"><svg x="-96" y="685" overflow="visible"><g transform="scale(4.264961199760036) matrix(0.707 0.409 -0.707 0.409 0 0)"><circle cx="0" cy="0" fill="#ffffff" r="23"></circle><svg width="14" height="32" x="-7" y="-16" style="fill: rgb(0, 0, 0);"><svg xmlns="http://www.w3.org/2000/svg" width="14" height="32" viewBox="0 0 14 32"><path d="M13.661 8.804a.573.573 0 0 1-.518.339h-4v22.286c0 .321-.25.571-.571.571H5.143a.564.564 0 0 1-.571-.571V9.143h-4c-.232 0-.429-.125-.518-.339S0 8.358.143 8.179l6.25-6.857a.582.582 0 0 1 .411-.179c.161 0 .321.071.429.179l6.339 6.857a.608.608 0 0 1 .089.625z"></path></svg></svg></g></svg></g></g><g opacity="1"><g id="a60125d5-23a0-4623-a578-f410adc5ef29" transform="translate(0 0)"><svg x="-160" y="389" overflow="visible"><g transform="scale(4.264961199760036) matrix(0.707 0.409 -0.707 0.409 0 0)"><circle cx="0" cy="0" fill="#ffffff" r="23"></circle><svg width="31" height="32" x="-15.5" y="-16" style="fill: rgb(0, 0, 0);"><svg xmlns="http://www.w3.org/2000/svg" width="31" height="32" viewBox="0 0 31 32"><path d="M30.857 15.946a.622.622 0 0 1-.179.429l-6.857 6.321a.578.578 0 0 1-.625.107.573.573 0 0 1-.339-.518v-4H.571A.564.564 0 0 1 0 17.714v-3.429c0-.321.25-.571.571-.571h22.286v-4c0-.232.125-.429.339-.518s.446-.054.625.089l6.857 6.25c.107.107.179.25.179.411z"></path></svg></svg></g></svg></g></g><g opacity="1"><g id="9d72f3db-7b5a-48cb-a561-0ba6f5b4ec80" transform="translate(0 0)"><svg x="-848" y="527" overflow="visible"><g transform="scale(0.8) "><svg width="100" height="100" x="-50" y="-50" style="fill: rgb(255, 255, 255);"><svg data-name="Layer 1" xmlns="http://www.w3.org/2000/svg" width="100" height="100" viewBox="0 0 100 100"><g><path fill="#759c3e" d="M30.03 72.93l-11.41-2.82V30.66l11.41-2.21v44.48z"></path><path fill="#b7ca9d" d="M20.66 65.71l29.62 21.98V69.48l-20.25-5.09-9.37 1.32z"></path><path fill="#4b612c" d="M69.97 69.48l11.22.63.31-37.17-11.53-3.67v40.21z"></path><path fill="#3c4929" d="M50.28 30.88L30.03 35.6l-9.37-1.31L50.28 12.9v17.98z"></path><path fill="#b7ca9d" d="M79.34 65.71L49.72 86.36V69.48l20.25-5.09 9.37 1.32z"></path><path fill="#3c4929" d="M49.72 30.88l20.25 4.72 9.37-1.31L50 12.03l-.28 18.85z"></path><path d="M50 9L16.32 26v48L50 91l8.57-40.44zm-9.88 62.55l-19.46-5.84V34.29l19.46-5.84z" fill="#4b612c"></path><path d="M50 91l33.7-17V26L50 9zm9.92-62.55l19.46 5.84v31.42l-19.5 5.84z" fill="#759c3e"></path></g></svg></svg></g></svg></g></g><g opacity="1"><g id="d4c96372-8465-4d25-963b-b86c1af0cae6" transform="translate(0 0)"><svg x="-176" y="509" overflow="visible"><g transform="scale(0.8) "><svg width="100" height="100" x="-50" y="-50" style="fill: rgb(255, 255, 255);"><svg data-name="Layer 1" xmlns="http://www.w3.org/2000/svg" width="100" height="100" viewBox="0 0 100 100"><g><path fill="#759c3e" d="M30.03 72.93l-11.41-2.82V30.66l11.41-2.21v44.48z"></path><path fill="#b7ca9d" d="M20.66 65.71l29.62 21.98V69.48l-20.25-5.09-9.37 1.32z"></path><path fill="#4b612c" d="M69.97 69.48l11.22.63.31-37.17-11.53-3.67v40.21z"></path><path fill="#3c4929" d="M50.28 30.88L30.03 35.6l-9.37-1.31L50.28 12.9v17.98z"></path><path fill="#b7ca9d" d="M79.34 65.71L49.72 86.36V69.48l20.25-5.09 9.37 1.32z"></path><path fill="#3c4929" d="M49.72 30.88l20.25 4.72 9.37-1.31L50 12.03l-.28 18.85z"></path><path d="M50 9L16.32 26v48L50 91l8.57-40.44zm-9.88 62.55l-19.46-5.84V34.29l19.46-5.84z" fill="#4b612c"></path><path d="M50 91l33.7-17V26L50 9zm9.92-62.55l19.46 5.84v31.42l-19.5 5.84z" fill="#759c3e"></path></g></svg></svg></g></svg></g></g></g><g pointer-events="auto"><g opacity="1"><g id="fa714f74-96b2-4542-b55f-5450ab3bbb8d" transform="translate(0 0)"><svg x="-304" y="657" overflow="visible"><text stroke="#ffffff" stroke-width="4" font-family="Open Sans" y="36.5" font-size="25pt" fill="#f5b720" font-weight="bold" transform="matrix(0.707 0.409 -0.707 0.409 0 0)" xml:space="preserve"><tspan x="8" dy="0">Local </tspan><tspan x="8" dy="1.1em">Development</tspan></text><text font-family="Open Sans" y="36.5" font-size="25pt" fill="#f5b720" font-weight="bold" transform="matrix(0.707 0.409 -0.707 0.409 0 0)" xml:space="preserve"><tspan x="8" dy="0">Local </tspan><tspan x="8" dy="1.1em">Development</tspan></text></svg></g></g><g opacity="1"><g id="513459c4-d358-4294-a099-c91c4c52b094"><svg x="96" y="592" overflow="visible"><text stroke="#ffffff" stroke-width="4" font-family="Open Sans" y="59.3" font-size="45pt" fill="#f5b720" font-weight="bold" transform="matrix(0.707 0.409 -0.707 0.409 0 0)" xml:space="preserve"><tspan x="8" dy="0">EC2</tspan></text><text font-family="Open Sans" y="59.3" font-size="45pt" fill="#f5b720" font-weight="bold" transform="matrix(0.707 0.409 -0.707 0.409 0 0)" xml:space="preserve"><tspan x="8" dy="0">EC2</tspan></text></svg></g></g><g opacity="1"><g id="71133d69-bb58-472e-8346-4eeddeeedc70"><svg x="-325" y="330" overflow="visible"><text stroke="#ffffff" stroke-width="4" font-family="Open Sans" y="36.5" font-size="25pt" fill="#f5b720" font-weight="bold" transform="matrix(0.707 0.409 -0.707 0.409 0 0)" xml:space="preserve"><tspan x="8" dy="0">IAM</tspan></text><text font-family="Open Sans" y="36.5" font-size="25pt" fill="#f5b720" font-weight="bold" transform="matrix(0.707 0.409 -0.707 0.409 0 0)" xml:space="preserve"><tspan x="8" dy="0">IAM</tspan></text></svg></g></g><g opacity="1"><g id="44b32809-333b-4829-9a0d-f76fc2ae10e2"><svg x="-560" y="472" overflow="visible"><text stroke="#ffffff" stroke-width="4" font-family="Open Sans" y="36.5" font-size="25pt" fill="#f5b720" font-weight="bold" transform="matrix(0.707 0.409 -0.707 0.409 0 0)" xml:space="preserve"><tspan x="8" dy="0">S3 Bucket</tspan></text><text font-family="Open Sans" y="36.5" font-size="25pt" fill="#f5b720" font-weight="bold" transform="matrix(0.707 0.409 -0.707 0.409 0 0)" xml:space="preserve"><tspan x="8" dy="0">S3 Bucket</tspan></text></svg></g></g><g opacity="1"><g id="05664814-0369-468d-b3b5-2eaf3eea6c4a"><svg x="-437" y="395" overflow="visible"><text stroke="#ffffff" stroke-width="4" font-family="Open Sans" y="36.5" font-size="25pt" fill="#f5b720" font-weight="bold" transform="matrix(0.707 0.409 -0.707 0.409 0 0)" xml:space="preserve"><tspan x="8" dy="0">CodeCommit</tspan></text><text font-family="Open Sans" y="36.5" font-size="25pt" fill="#f5b720" font-weight="bold" transform="matrix(0.707 0.409 -0.707 0.409 0 0)" xml:space="preserve"><tspan x="8" dy="0">CodeCommit</tspan></text></svg></g></g><g opacity="1"><g id="7c6f7665-518b-496d-8d66-b40e730a30e4"><svg x="-644" y="534" overflow="visible"><text stroke="#ffffff" stroke-width="4" font-family="Open Sans" y="36.5" font-size="25pt" fill="#f5b720" font-weight="bold" transform="matrix(0.707 0.409 -0.707 0.409 0 0)" xml:space="preserve"><tspan x="8" dy="0">ECR</tspan></text><text font-family="Open Sans" y="36.5" font-size="25pt" fill="#f5b720" font-weight="bold" transform="matrix(0.707 0.409 -0.707 0.409 0 0)" xml:space="preserve"><tspan x="8" dy="0">ECR</tspan></text></svg></g></g><g opacity="1"><g id="c012cad9-1c30-4f3e-b203-77cb52b0ead3" transform="translate(0 0)"><svg x="-304" y="139" overflow="visible"><text stroke="#ffffff" stroke-width="4" font-family="Open Sans" y="36.5" font-size="25pt" fill="#f5b720" font-weight="bold" transform="matrix(0.707 0.409 -0.707 0.409 0 0)" xml:space="preserve"><tspan x="8" dy="0">Infrastructure Stack</tspan></text><text font-family="Open Sans" y="36.5" font-size="25pt" fill="#f5b720" font-weight="bold" transform="matrix(0.707 0.409 -0.707 0.409 0 0)" xml:space="preserve"><tspan x="8" dy="0">Infrastructure Stack</tspan></text></svg></g></g><g opacity="1"><g id="42b9c268-f830-4929-b7fd-329f9ee79212" transform="translate(0 0)"><svg x="128" y="389" overflow="visible"><text stroke="#ffffff" stroke-width="4" font-family="Open Sans" y="36.5" font-size="25pt" fill="#f5b720" font-weight="bold" transform="matrix(0.707 0.409 -0.707 0.409 0 0)" xml:space="preserve"><tspan x="8" dy="0">Ephemeral Stack</tspan></text><text font-family="Open Sans" y="36.5" font-size="25pt" fill="#f5b720" font-weight="bold" transform="matrix(0.707 0.409 -0.707 0.409 0 0)" xml:space="preserve"><tspan x="8" dy="0">Ephemeral Stack</tspan></text></svg></g></g><g opacity="1"><g id="3c643d51-3f3f-48ea-af17-90256d169399" transform="translate(0 0)"><svg x="-64" y="685" overflow="visible"><text stroke="#ffffff" stroke-width="4" font-family="Open Sans" y="36.5" font-size="25pt" fill="#f5b720" font-weight="bold" transform="matrix(0.707 0.409 -0.707 0.409 0 0)" xml:space="preserve"><tspan x="8" dy="0">Job</tspan><tspan x="8" dy="1.1em">Submitted</tspan></text><text font-family="Open Sans" y="36.5" font-size="25pt" fill="#f5b720" font-weight="bold" transform="matrix(0.707 0.409 -0.707 0.409 0 0)" xml:space="preserve"><tspan x="8" dy="0">Job</tspan><tspan x="8" dy="1.1em">Submitted</tspan></text></svg></g></g><g opacity="1"><g id="711f4e10-85d0-4fa2-803f-b16332834608"><svg x="-818" y="544" overflow="visible"><text stroke="#ffffff" stroke-width="4" font-family="Open Sans" y="36.5" font-size="25pt" fill="#f5b720" font-weight="bold" transform="matrix(0.707 0.409 -0.707 0.409 0 0)" xml:space="preserve"><tspan x="8" dy="0">CFN</tspan></text><text font-family="Open Sans" y="36.5" font-size="25pt" fill="#f5b720" font-weight="bold" transform="matrix(0.707 0.409 -0.707 0.409 0 0)" xml:space="preserve"><tspan x="8" dy="0">CFN</tspan></text></svg></g></g><g opacity="1"><g id="41855cbe-ac2e-4427-94c0-d5d9ba357a6b"><svg x="-146" y="526" overflow="visible"><text stroke="#ffffff" stroke-width="4" font-family="Open Sans" y="36.5" font-size="25pt" fill="#f5b720" font-weight="bold" transform="matrix(0.707 0.409 -0.707 0.409 0 0)" xml:space="preserve"><tspan x="8" dy="0">CFN</tspan></text><text font-family="Open Sans" y="36.5" font-size="25pt" fill="#f5b720" font-weight="bold" transform="matrix(0.707 0.409 -0.707 0.409 0 0)" xml:space="preserve"><tspan x="8" dy="0">CFN</tspan></text></svg></g></g></g><g></g></g></svg>